<?xml version="1.0" encoding="UTF-8" standalone="no"?>
<svg
   xml:space="preserve"
   width="1334.6786"
   height="366.76981"
   style="clip-rule:evenodd;fill-rule:evenodd;image-rendering:optimizeQuality;shape-rendering:geometricPrecision;text-rendering:geometricPrecision"
   viewBox="0 0 35313.359 9704.1189"
   version="1.1"
   id="svg73"
   sodipodi:docname="logo.svg"
   inkscape:version="1.2 (dc2aedaf03, 2022-05-15)"
   xmlns:inkscape="http://www.inkscape.org/namespaces/inkscape"
   xmlns:sodipodi="http://sodipodi.sourceforge.net/DTD/sodipodi-0.dtd"
   xmlns:xlink="http://www.w3.org/1999/xlink"
   xmlns="http://www.w3.org/2000/svg"
   xmlns:svg="http://www.w3.org/2000/svg"><sodipodi:namedview
     id="namedview75"
     pagecolor="#000000"
     bordercolor="#000000"
     borderopacity="0.25"
     inkscape:showpageshadow="2"
     inkscape:pageopacity="0"
     inkscape:pagecheckerboard="0"
     inkscape:deskcolor="#d1d1d1"
     showgrid="false"
     inkscape:zoom="0.3576048"
     inkscape:cx="-427.84661"
     inkscape:cy="191.55224"
     inkscape:window-width="1920"
     inkscape:window-height="991"
     inkscape:window-x="-9"
     inkscape:window-y="-9"
     inkscape:window-maximized="1"
     inkscape:current-layer="svg73" /><defs
     id="defs53"><linearGradient
       id="a"
       x1="29901.34"
       x2="26491.1"
       y1="17999.59"
       y2="21345.77"
       gradientUnits="userSpaceOnUse"><stop
         offset="0"
         style="stop-opacity:1;stop-color:#898989"
         id="stop2" /><stop
         offset=".2"
         style="stop-opacity:1;stop-color:#fefefe"
         id="stop4" /><stop
         offset=".502"
         style="stop-opacity:1;stop-color:#727271"
         id="stop6" /><stop
         offset=".78"
         style="stop-opacity:1;stop-color:#ebecec"
         id="stop8" /><stop
         offset="1"
         style="stop-opacity:1;stop-color:#898989"
         id="stop10" /></linearGradient><linearGradient
       xlink:href="#a"
       id="d"
       x1="24440.869"
       x2="27851.039"
       y1="15722.01"
       y2="12375.82"
       gradientUnits="userSpaceOnUse" /><linearGradient
       id="e"
       x1="24603.381"
       x2="27688.52"
       y1="15552.8"
       y2="12518.65"
       gradientUnits="userSpaceOnUse"><stop
         offset="0"
         style="stop-opacity:1;stop-color:#00658c"
         id="stop14" /><stop
         offset=".561"
         style="stop-opacity:1;stop-color:#00a0e3"
         id="stop16" /><stop
         offset=".839"
         style="stop-opacity:1;stop-color:#bce3f9"
         id="stop18" /><stop
         offset="1"
         style="stop-opacity:1;stop-color:#00a0e3"
         id="stop20" /></linearGradient><linearGradient
       xlink:href="#a"
       id="h"
       x1="28287.859"
       x2="31656.109"
       y1="14108.11"
       y2="17540.711"
       gradientUnits="userSpaceOnUse" /><linearGradient
       xlink:href="#a"
       id="b"
       x1="26054.279"
       x2="22686.09"
       y1="19613.551"
       y2="16180.83"
       gradientUnits="userSpaceOnUse" /><linearGradient
       id="g"
       x1="29738.82"
       x2="26653.68"
       y1="18168.801"
       y2="21202.949"
       gradientUnits="userSpaceOnUse"><stop
         offset="0"
         style="stop-opacity:1;stop-color:#9d9204"
         id="stop25" /><stop
         offset=".51"
         style="stop-opacity:1;stop-color:#ffed00"
         id="stop27" /><stop
         offset=".839"
         style="stop-opacity:1;stop-color:#fff9c7"
         id="stop29" /><stop
         offset="1"
         style="stop-opacity:1;stop-color:#ffed00"
         id="stop31" /></linearGradient><linearGradient
       id="i"
       x1="28479.07"
       x2="31513.23"
       y1="14293.06"
       y2="17378.26"
       gradientUnits="userSpaceOnUse"><stop
         offset="0"
         style="stop-opacity:1;stop-color:#8f1a51"
         id="stop34" /><stop
         offset=".549"
         style="stop-opacity:1;stop-color:#e5097f"
         id="stop36" /><stop
         offset=".839"
         style="stop-opacity:1;stop-color:#f7c9df"
         id="stop38" /><stop
         offset="1"
         style="stop-opacity:1;stop-color:#e5097f"
         id="stop40" /></linearGradient><linearGradient
       id="c"
       x1="25863.08"
       x2="22828.98"
       y1="19428.551"
       y2="16343.35"
       gradientUnits="userSpaceOnUse"><stop
         offset="0"
         style="stop-opacity:1;stop-color:#2b2a29"
         id="stop43" /><stop
         offset=".58"
         style="stop-opacity:1;stop-color:#2b2a29"
         id="stop45" /><stop
         offset=".839"
         style="stop-opacity:1;stop-color:#fefefe"
         id="stop47" /><stop
         offset="1"
         style="stop-opacity:1;stop-color:#5b5b5b"
         id="stop49" /></linearGradient><linearGradient
       xlink:href="#a"
       id="f"
       x1="29901.34"
       x2="26491.1"
       y1="17999.59"
       y2="21345.77"
       gradientUnits="userSpaceOnUse" /><filter
       inkscape:collect="always"
       style="color-interpolation-filters:sRGB"
       id="filter887"
       x="-0.038305825"
       y="-0.20690731"
       width="1.0766116"
       height="1.4138146"><feGaussianBlur
         inkscape:collect="always"
         stdDeviation="369.30022"
         id="feGaussianBlur889" /></filter></defs><path
     d="m 12335.497,4864.279 618.08,924.05 h 581.35 l 618.09,-911.79 v 2117.35 h 1040.29 v -4283.66 h -820 l -1125.99,1658.37 -1126.02,-1658.37 h -832.26 v 4283.66 h 1046.46 z m 4803.83,-2154.05 v 4283.66 h 1046.46 v -1272.87 h 593.6 c 2001.08,0 2007.21,-3010.79 0,-3010.79 z m 1046.46,2025.55 v -1009.71 h 593.6 c 648.67,0 648.67,1009.71 0,1009.71 z m 3769.64,807.77 893.44,1450.34 h 1113.76 v -195.81 l -917.95,-1358.55 c 1315.71,-630.31 1064.81,-2729.3 -636.4,-2729.3 h -1664.54 v 4283.66 h 1040.32 v -1450.34 z m -171.37,-1829.74 h 599.73 c 636.44,0 630.32,881.22 0,881.22 h -599.73 z m 5048.61,-1003.58 h -2466.15 v 954.62 h 709.85 v 2392.74 h -709.85 v 936.3 h 2466.15 v -936.3 h -709.84 v -2392.74 h 709.84 z m 1548.24,4283.66 v -2086.77 l 1462.59,2086.77 h 820 v -4283.66 h -1034.2 v 2141.83 l -1480.91,-2141.83 h -807.81 v 4283.66 z m 4895.66,0 v -3304.56 h 1150.48 v -979.1 h -3353.53 v 979.1 h 1156.6 v 3304.56 z"
     style="mix-blend-mode:normal;fill:#ffffff;fill-rule:nonzero;stroke:none;stroke-width:396.875;stroke-dasharray:none;paint-order:stroke fill markers;filter:url(#filter887)"
     id="path885" /><path
     d="m 12335.497,4864.279 618.08,924.05 h 581.35 l 618.09,-911.79 v 2117.35 h 1040.29 v -4283.66 h -820 l -1125.99,1658.37 -1126.02,-1658.37 h -832.26 v 4283.66 h 1046.46 z m 4803.83,-2154.05 v 4283.66 h 1046.46 v -1272.87 h 593.6 c 2001.08,0 2007.21,-3010.79 0,-3010.79 z m 1046.46,2025.55 v -1009.71 h 593.6 c 648.67,0 648.67,1009.71 0,1009.71 z m 3769.64,807.77 893.44,1450.34 h 1113.76 v -195.81 l -917.95,-1358.55 c 1315.71,-630.31 1064.81,-2729.3 -636.4,-2729.3 h -1664.54 v 4283.66 h 1040.32 v -1450.34 z m -171.37,-1829.74 h 599.73 c 636.44,0 630.32,881.22 0,881.22 h -599.73 z m 5048.61,-1003.58 h -2466.15 v 954.62 h 709.85 v 2392.74 h -709.85 v 936.3 h 2466.15 v -936.3 h -709.84 v -2392.74 h 709.84 z m 1548.24,4283.66 v -2086.77 l 1462.59,2086.77 h 820 v -4283.66 h -1034.2 v 2141.83 l -1480.91,-2141.83 h -807.81 v 4283.66 z m 4895.66,0 v -3304.56 h 1150.48 v -979.1 h -3353.53 v 979.1 h 1156.6 v 3304.56 z"
     style="fill:#000080;fill-rule:nonzero;stroke:none;stroke-width:396.875;stroke-dasharray:none;paint-order:stroke fill markers"
     id="path55" /><g
     id="g366"
     style="stroke:#ffffff;stroke-width:0.1;stroke-dasharray:none"
     transform="translate(0.05003906,0.05003906)"><path
       d="m 27026.35,18323 -2607.88,-2601.27 c -185.9,-185.9 -288.45,-436.57 -288.45,-699.24 0,-183.3 50.13,-362.02 144.75,-516.84 l -1675.26,1675.27 c -373.93,373.92 -373.93,985.83 0,1359.76 l 2048.35,2042.16 8.11,8.13 c 179.96,179.95 422.55,279.17 676.81,279.17 254.26,0 496.83,-99.22 676.79,-279.17 l 1220.92,-1220.91 c -70.35,19.91 -148.1,3.31 -204.14,-47.06 z m -3114.3,-3129.58 -1150.02,1150.02 c -284,283.98 -284.93,750.65 -0.26,1034.47 l 2056.74,2050.54 c 136.82,136.83 320.95,211.85 514.27,211.85 193.31,0 377.44,-75.02 514.27,-211.85 l 979.79,-979.8 -2570.68,-2564.21 c -188.61,-188.12 -307.71,-430.77 -344.11,-691.02 z"
       style="fill:url(#b);stroke:#ffffff;stroke-width:0.1;stroke-dasharray:none"
       transform="translate(-22319.063,-12008.783)"
       id="path57" /><path
       d="m 23912.04,15193.41 -1150.02,1150.02 c -283.99,283.99 -284.92,750.66 -0.24,1034.48 l 2056.73,2050.54 c 136.82,136.82 320.96,211.85 514.27,211.85 193.31,0 377.44,-75.03 514.27,-211.85 l 979.79,-979.8 -2570.69,-2564.21 c -188.59,-188.11 -307.71,-430.76 -344.11,-691.03 z"
       style="fill:url(#c);stroke:#ffffff;stroke-width:0.1;stroke-dasharray:none"
       transform="translate(-22319.063,-12008.783)"
       id="path59" /><path
       d="m 25708.89,16716.04 2601.28,-2607.85 c 185.9,-185.9 436.56,-288.44 699.23,-288.44 183.31,0 362.03,50.14 516.85,144.75 l -1675.29,-1675.27 c -373.92,-373.93 -985.83,-373.93 -1359.76,0 l -2042.17,2048.35 -8.11,8.13 c -179.95,179.94 -279.19,422.53 -279.19,676.78 0,254.26 99.23,496.83 279.19,676.79 l 1220.88,1220.89 c -19.89,-70.35 -3.3,-148.07 47.09,-204.13 z m 3129.59,-3114.26 -1150.04,-1150.03 c -283.98,-283.99 -750.65,-284.93 -1034.47,-0.26 l -2050.53,2056.74 c -136.81,136.81 -211.85,320.96 -211.85,514.26 0,193.31 75.04,377.44 211.85,514.27 l 979.78,979.8 2564.22,-2570.68 c 188.14,-188.59 430.77,-307.71 691.04,-344.1 z"
       style="fill:url(#d);stroke:#ffffff;stroke-width:0.1;stroke-dasharray:none"
       transform="translate(-22319.063,-12008.783)"
       id="path61" /><path
       d="m 28838.48,13601.77 -1150.03,-1150.02 c -283.99,-283.99 -750.66,-284.93 -1034.48,-0.25 l -2050.53,2056.73 c -136.82,136.82 -211.85,320.96 -211.85,514.26 0,193.31 75.03,377.45 211.85,514.27 l 979.79,979.79 2564.21,-2570.68 c 188.13,-188.59 430.77,-307.7 691.04,-344.1 z"
       style="fill:url(#e);stroke:#ffffff;stroke-width:0.1;stroke-dasharray:none"
       transform="translate(-22319.063,-12008.783)"
       id="path63" /><path
       d="m 29893.12,19384.05 8.11,-8.13 c 179.96,-179.96 279.17,-422.55 279.17,-676.79 0,-254.26 -99.21,-496.85 -279.17,-676.81 l -1220.87,-1220.87 c 19.89,70.34 3.29,148.04 -47.09,204.06 l -2601.26,2607.91 c -185.9,185.91 -436.57,288.45 -699.23,288.45 -183.33,0 -362.03,-50.13 -516.86,-144.77 l 1675.28,1675.26 c 373.93,373.91 985.84,373.93 1359.76,0 z m -1134.22,-2179 -2564.15,2570.68 c -188.11,188.62 -430.76,307.71 -691.04,344.11 l 1150.02,1150 c 283.98,283.99 750.67,284.91 1034.47,0.26 l 2050.51,-2056.71 c 136.83,-136.83 211.85,-320.96 211.85,-514.26 -0.01,-193.32 -75.02,-377.44 -211.85,-514.28 z"
       style="fill:url(#f);stroke:#ffffff;stroke-width:0.1;stroke-dasharray:none"
       transform="translate(-22319.063,-12008.783)"
       id="path65" /><path
       d="m 28758.89,17205.05 -2564.14,2570.68 c -188.12,188.62 -430.77,307.72 -691.04,344.1 l 1150.01,1150.02 c 283.98,283.98 750.67,284.91 1034.48,0.24 l 2050.52,-2056.7 c 136.82,-136.83 211.83,-320.96 211.83,-514.27 0,-193.32 -75,-377.43 -211.83,-514.26 z"
       style="fill:url(#g);stroke:#ffffff;stroke-width:0.1;stroke-dasharray:none"
       transform="translate(-22319.063,-12008.783)"
       id="path67" /><path
       d="m 29694.33,14138.76 -8.14,-8.11 c -179.96,-179.96 -422.53,-279.18 -676.79,-279.18 -254.25,0 -496.84,99.22 -676.8,279.18 l -1220.86,1220.87 c 70.34,-19.88 148.04,-3.27 204.06,47.09 l 2607.88,2601.29 c 185.91,185.9 288.45,436.55 288.45,699.23 0,183.31 -50.13,362.03 -144.75,516.84 l 1675.28,-1675.29 c 373.93,-373.93 373.93,-985.84 0,-1359.76 z m -2179.02,1134.23 2570.67,2564.19 c 188.62,188.14 307.74,430.79 344.12,691.05 l 1150.05,-1150.06 c 284.02,-284 284.95,-750.69 0.25,-1034.51 l -2056.72,-2050.5 c -136.81,-136.81 -320.97,-211.87 -514.28,-211.87 -193.32,0 -377.45,75.02 -514.28,211.87 z"
       style="fill:url(#h);stroke:#ffffff;stroke-width:0.1;stroke-dasharray:none"
       transform="translate(-22319.063,-12008.783)"
       id="path69" /><path
       d="m 27515.3,15272.98 2570.69,2564.2 c 188.6,188.13 307.72,430.78 344.11,691.05 l 1150.06,-1150.06 c 284,-284 284.93,-750.68 0.24,-1034.51 l -2056.71,-2050.5 c -136.82,-136.82 -320.98,-211.87 -514.29,-211.86 -193.32,-0.01 -377.45,75.02 -514.29,211.85 z"
       style="fill:url(#i);stroke:#ffffff;stroke-width:0.1;stroke-dasharray:none"
       transform="translate(-22319.063,-12008.783)"
       id="path71" /></g></svg>
